PathFileType	4	(X/Y/Z)	Patient5_TMGait_0pt45_1_right_08.trc.trc
DataRate	CameraRate	NumFrames	NumMarkers	Units	OrigDataRate	OrigDataStartFrame	OrigNumFrames
57.377049180328	57.377049180328	5	32	mm	57.377049180328	106	       141
Frame#	Time	R.ASIS			L.ASIS			Chest			R.Shoulder			Neck			L.Shoulder			L.Elbow			L.Wrist			R.Elbow			R.Wrist			L.Thigh.Superior			L.Thigh.Lateral			L.Thigh.Inferior			L.Patella			L.Shank.Superior			L.Shank.Lateral			L.Shank.Inferior			L.Heel			L.Midfoot.Lateral			L.Midfoot.Superior			L.Toe			R.Thigh.Superior			R.Thigh.Lateral			R.Thigh.Inferior			R.Patella			R.Shank.Superior			R.Shank.Lateral			R.Shank.Inferior			R.Heel			R.Midfoot.Lateral			R.Midfoot.Superior			R.Toe			
		X1	Y1	Z1	X2	Y2	Z2	X3	Y3	Z3	X4	Y4	Z4	X5	Y5	Z5	X6	Y6	Z6	X7	Y7	Z7	X8	Y8	Z8	X9	Y9	Z9	X10	Y10	Z10	X11	Y11	Z11	X12	Y12	Z12	X13	Y13	Z13	X14	Y14	Z14	X15	Y15	Z15	X16	Y16	Z16	X17	Y17	Z17	X18	Y18	Z18	X19	Y19	Z19	X20	Y20	Z20	X21	Y21	Z21	X22	Y22	Z22	X23	Y23	Z23	X24	Y24	Z24	X25	Y25	Z25	X26	Y26	Z26	X27	Y27	Z27	X28	Y28	Z28	X29	Y29	Z29	X30	Y30	Z30	X31	Y31	Z31	X32	Y32	Z32	

106	14.680000000000	1020.278328516652	1015.778945961283	541.821935558673	1030.600661334684	966.617564458671	302.622719295739	1088.861497199095	1450.921304058052	413.373849142125	961.547079417528	1524.151447853875	555.906472942105	975.153980707377	1575.266239989826	370.201476510758	1069.374222448427	1509.410052255635	209.578948084012	1065.023390034891	1179.405956946756	92.447573623026	1217.588637366590	938.423465399622	140.615523879479	844.133535661217	1213.362785437921	691.170371090173	1068.193927578664	1029.765364761883	667.166289010613	1033.793380682102	742.499673057626	311.176805350729	951.284008826446	678.737845849802	276.058999511442	1016.719575475794	614.314252136138	337.243742379853	1001.265184425139	499.166635999305	346.325309912747	946.494446905695	402.456917583101	374.275075592246	870.116067475116	337.515783217359	301.711503861719	903.956878760513	283.053231667539	389.708630522249	750.652814798404	55.470946185433	400.054665828397	841.589001652125	29.265060151796	344.965714217427	938.294148632070	89.890232725115	391.395443872946	1043.359283542348	43.896309312026	403.321256990526	1105.303499474489	831.748896882455	586.569049416114	1061.470164041883	742.939271796797	660.451889403864	1156.352227298144	713.163439326823	592.290388672051	1196.323201131769	622.047216119193	639.068829650846	1159.410728604139	504.037793895532	611.981754570033	1088.057968071944	439.181665332495	696.281648528004	1144.079763355975	364.991124659217	619.823159380098	1027.924946839862	136.661177223240	604.944297753103	1108.821750766417	105.539148794318	675.484228708693	1211.641663652331	176.834074886728	658.537624968009	1316.517602243065	137.268642999221	654.390973928879	
107	14.697428571429	1020.021438198432	1014.840065621510	542.103548698990	1027.888678717841	966.451899403778	303.101390544527	1086.132871162011	1450.807021758069	413.544939289090	960.306791728566	1523.683894278921	557.598424375871	971.633704574268	1574.825404843144	371.674291925851	1063.901673308391	1509.086463687116	209.864170316507	1057.647909703456	1178.881071566356	93.061325356478	1209.941521563080	937.560147101196	140.405531253057	844.158373736960	1213.364001831739	694.848548528635	1067.281581821842	1028.864527694481	669.121179877711	1030.616223814088	741.985572509599	311.672318724981	947.379784287910	678.524672591392	276.933126019826	1012.592726161002	613.665747737361	337.641477252782	996.236490535422	498.574333218198	346.760552345368	940.919052432493	402.172327865437	374.755058963784	863.875905035069	337.872438316394	302.311821144173	897.638639281161	283.103734872651	390.219331300504	742.927633888146	55.998806505432	400.411645628379	833.741570551565	29.595812519768	345.180808428540	930.520531142493	89.880566232558	391.513386283240	1035.472675630778	43.858016921919	403.283258488344	1105.839363617912	830.275871914915	583.602863353266	1062.748941291377	741.464537302123	659.768168476142	1156.689196565772	711.785871716619	590.220198369325	1197.191034455686	620.649937959695	636.320136626475	1160.256804763378	502.663118079658	609.736069031674	1090.369432089409	437.551642010566	694.973719533051	1145.562003833047	363.599328294277	617.773821909922	1030.161485252080	134.712214946605	604.424241042247	1112.081214847519	104.115883104994	673.965770934778	1214.311126231014	175.909180683517	655.639954383657	1319.320619535334	136.845852354828	650.269882422385	
108	14.714857142857	1019.843885602570	1013.878545308978	542.431570350586	1025.362601226725	966.210202982587	303.675105899518	1083.537258902506	1450.608251568040	413.929934554219	959.275607363137	1523.093637434326	559.538897006220	968.212117557913	1574.307250062411	373.430785731345	1058.447581410610	1508.696690414839	210.391793652393	1050.044576966748	1178.389070192599	93.704443196444	1201.822489797959	936.484184533655	139.740529783891	844.577859728100	1213.222370452413	698.808228366630	1066.662811006233	1027.787719611521	670.910878065134	1027.497453119279	741.399112362097	312.291541694798	943.566705200885	678.223861776114	277.827752748270	1008.423830736504	612.967246692335	338.189882808038	991.091715423948	497.954560421837	347.356528427811	935.258502082422	401.875465395923	375.299812621019	857.609036286035	338.207163148260	302.924434002434	891.238715186236	283.133264982871	390.773994873015	735.193231370359	56.510958130680	400.764539291613	825.886504567353	29.948027381049	345.381229759874	922.725243787446	89.851323730408	391.652447540762	1027.569314560880	43.820176650550	403.264374184829	1105.885533814831	828.236401462350	581.270583926457	1063.099623630066	739.392909534212	659.072527295579	1156.191761235386	709.677454522546	588.416281073693	1196.922232582902	618.482387175908	633.876317397061	1160.208817186101	500.668151854705	607.617108281132	1091.627541664484	435.163089624669	693.543169597433	1146.356847814150	361.552572506432	615.773119117737	1032.191647861728	131.954251430540	603.511213049854	1114.946153303487	101.967443920448	672.286266508141	1216.504372146517	174.401939711849	652.931374135239	1321.698580912010	136.000004785518	646.611946498264	
109	14.732285714286	1019.719512463033	1012.887918593194	542.824963574188	1023.053440711441	965.897055879940	304.341463529955	1081.083510396798	1450.317778954227	414.554026416835	958.422616988729	1522.366872614072	561.727947397079	964.910368182276	1573.705024497564	375.481479061412	1053.065547396451	1508.248432912091	211.188005703452	1042.281438863530	1177.950810189951	94.389444694076	1193.257919432951	935.206744045182	138.682615045165	845.349822061449	1212.893214370742	702.972028210292	1066.384205566638	1026.600611397814	672.534528578607	1024.402919936150	740.736697604091	313.042123320966	939.801576234042	677.856604119119	278.729105796754	1004.161163695528	612.229626915334	338.882164240894	985.751872643550	497.331924000070	348.083448719185	929.441343282459	401.590430251927	375.886665648006	851.243003786211	338.536000442658	303.534685635482	884.712708611520	283.149406906922	391.343182936073	727.444611869564	56.997920659293	401.089747868077	818.023414815368	30.305148863233	345.557678594306	914.907736868289	89.814263155263	391.792404655117	1019.647098152353	43.788118608000	403.261876582768	1105.445677495845	825.711859632085	579.909757650517	1062.624252892800	736.769728838020	658.421897409731	1154.929497426506	706.899565967183	586.875192763296	1195.637823874509	615.615815302167	631.731853583969	1159.342007751788	498.095352397949	605.632600129879	1091.920902077763	432.079623880052	692.031458838539	1146.506949233458	358.903051002327	613.817872586044	1033.950316321807	128.484298842160	602.222032763533	1117.385959423841	99.149317405476	670.425721322284	1218.219319001237	172.344199409552	650.358849695021	1323.650371459175	134.732694131531	643.308033807529	
110	14.749714285714	1019.627126378087	1011.852322664779	543.313559024264	1020.991180633987	965.529721937182	305.103808770658	1078.783660603490	1449.934811782966	415.435120990806	957.719216878890	1521.496462336979	564.159884015565	961.754665879851	1573.015973071857	377.824895105034	1047.813540857930	1507.753678462918	212.267611262992	1034.416230455323	1177.589375389537	95.124374545333	1184.276583452523	933.756621265730	137.306092718652	846.432621216601	1212.335867579238	707.258082410020	1066.474633976016	1025.343870801799	674.008327967877	1021.308309480200	740.005548217435	313.911263784267	936.045883292014	677.453090465229	279.621690084613	999.780463529897	611.467457090457	339.689150437243	980.183237361495	496.728148791011	348.890724563671	923.429305399859	401.338837301205	376.485286915344	844.728634518456	338.879029728165	304.126454695544	878.042558999768	283.164671080484	391.892950807923	719.679809856284	57.457252962707	401.367929465244	810.153439792567	30.651271284737	345.702445703992	907.072291981445	89.779707216999	391.912115308465	1011.706754503982	43.769711919538	403.267529618172	1104.543309760328	822.782356455329	579.680494801320	1061.444393496039	733.655949724041	657.861729036710	1152.990338023854	703.529082494297	585.569120565412	1193.471417323183	612.135883707347	629.852261299849	1157.734558345773	494.998101468899	603.775911895276	1091.339619191414	428.383116603410	690.464817346772	1146.045325440038	355.716067138335	611.901450466282	1035.351304078267	124.416598736979	600.585742993457	1119.338440710233	95.736691111804	668.381811499378	1219.426053289077	169.775797073078	647.888959176466	1325.136821139387	133.041805142478	640.285629021498	
